# xmcd CD database file
#
# Track frame offsets:
#	150
#	9334
#	21557
#	27874
#	36713
#	40093
#	43442
#	48359
#	52196
#	55347
#	59285
#	62518
#	66720
#	70823
#	75949
#	82942
#	89212
#	97996
#	103296
#	106301
#	109152
#	115571
#	118757
#	122349
#	129937
#	133681
#	138057
#	143257
#	149818
#	155192
#	159990
#	164656
#	167723
#	175045
#	178033
#	184673
#	190479
#	193513
#	196679
#	202717
#	209766
#	214274
#	217461
#	220814
#	224049
#	228396
#	233801
#	237114
#	243638
#	250442
#
# Disc length: 3378 seconds
#
# Revision: 0
# Processed by: cddbd v1.4PL0 Copyright (c) Steve Scherf et al.
# Submitted via: CDex 1.50Beta7
#
DISCID=fa0d3032
DTITLE=Colin Cosimini - Chord Book Volume 1
DYEAR=2003
DGENRE=Jazz
TTITLE0=Tune Up/After You've Gone
TTITLE1=Anouman
TTITLE2=Autumn Leaves
TTITLE3=Beyond The Sea
TTITLE4=Blues En Mineur
TTITLE5=Blues For Ike
TTITLE6=Cherokee
TTITLE7=Clair De Lune
TTITLE8=Coquette
TTITLE9=Danse Norvegienne
TTITLE10=Daphne
TTITLE11=Dark Eyes
TTITLE12=Deep Purple
TTITLE13=Djangos Tiger
TTITLE14=Don't Worry About Me
TTITLE15=Echoes Of France
TTITLE16=Embraceable You
TTITLE17=Fleur De Lavende
TTITLE18=How High The Moon
TTITLE19=Hungaria
TTITLE20=I Can't Believe Your In Love With Me
TTITLE21=I Love You
TTITLE22=I'll See You In My Dreams
TTITLE23=Insensiblement
TTITLE24=Just One Of Those Things
TTITLE25=J'Attendrai
TTITLE26=Limehouse Blues
TTITLE27=Melodie Au Crepescule
TTITLE28=Menilmontant
TTITLE29=Minor Swing
TTITLE30=Montagne Ste. Genevieve
TTITLE31=My Melancholy Baby
TTITLE32=Nature Boy
TTITLE33=Nuits De Saint-Germain-De-Pres
TTITLE34=Ou Est-Tu Mon Amour
TTITLE35=Over The Rainbow
TTITLE36=Pent Up House
TTITLE37=Rose Room
TTITLE38=September Song
TTITLE39=Si Tu Savais
TTITLE40=Swing Gitan
TTITLE41=Swing 39
TTITLE42=Take The A Train
TTITLE43=Tea For Two
TTITLE44=Troublant Bolero
TTITLE45=Anniversary Song
TTITLE46=Them There Eyes
TTITLE47=There Will Never Be Another You
TTITLE48=Wave
TTITLE49=What Is This Thing Called Love
EXTD=YEAR: 2003
EXTT0=
EXTT1=
EXTT2=
EXTT3=
EXTT4=
EXTT5=
EXTT6=
EXTT7=
EXTT8=
EXTT9=
EXTT10=
EXTT11=
EXTT12=
EXTT13=
EXTT14=
EXTT15=
EXTT16=
EXTT17=
EXTT18=
EXTT19=
EXTT20=
EXTT21=
EXTT22=
EXTT23=
EXTT24=
EXTT25=
EXTT26=
EXTT27=
EXTT28=
EXTT29=
EXTT30=
EXTT31=
EXTT32=
EXTT33=
EXTT34=
EXTT35=
EXTT36=
EXTT37=
EXTT38=
EXTT39=
EXTT40=
EXTT41=
EXTT42=
EXTT43=
EXTT44=
EXTT45=
EXTT46=
EXTT47=
EXTT48=
EXTT49=
PLAYORDER=
